<svg xmlns="http://www.w3.org/2000/svg" xmlns:xlink="http://www.w3.org/1999/xlink" width="500" zoomAndPan="magnify" viewBox="0 0 375 374.999991" height="500" preserveAspectRatio="xMidYMid meet" version="1.0"><defs><g/></defs><g fill="#000000" fill-opacity="1"><g transform="translate(130.638915, 189.912996)"><g><path d="M 29.765625 -99 L 29.765625 -19.796875 L 63.84375 -19.796875 L 63.84375 0 L 7.203125 0 L 7.203125 -99 Z M 29.765625 -99 "/></g></g></g><g fill="#000000" fill-opacity="1"><g transform="translate(244.359627, 132.500792)"><g><path d="M -29.765625 99 L -29.765625 19.796875 L -63.84375 19.796875 L -63.84375 0 L -7.203125 0 L -7.203125 99 Z M -29.765625 99 "/></g></g></g><g fill="#000000" fill-opacity="1"><g transform="translate(127.655467, 269.088556)"><g><path d="M 1.039062 0 L 11.65625 0 L 11.65625 -4.039062 L 5.660156 -4.039062 L 5.660156 -13.996094 L 1.039062 -13.996094 Z M 1.039062 0 "/></g></g></g><g fill="#000000" fill-opacity="1"><g transform="translate(144.150781, 269.088556)"><g><path d="M 1.039062 0 L 5.660156 0 L 5.660156 -13.996094 L 1.039062 -13.996094 Z M 1.039062 0 "/></g></g></g><g fill="#000000" fill-opacity="1"><g transform="translate(155.468136, 269.088556)"><g><path d="M 1.039062 0 L 7.859375 0 C 10.816406 0 13.578125 -0.839844 13.578125 -4.019531 C 13.578125 -5.796875 12.65625 -6.9375 11.015625 -7.4375 C 12.457031 -7.996094 13.015625 -9.019531 13.015625 -10.457031 C 13.015625 -12.898438 11.21875 -13.996094 8.058594 -13.996094 L 1.039062 -13.996094 Z M 5.660156 -8.539062 L 5.660156 -10.617188 L 7.398438 -10.617188 C 8.179688 -10.617188 8.558594 -10.136719 8.558594 -9.578125 C 8.558594 -8.996094 8.179688 -8.539062 7.398438 -8.539062 Z M 5.660156 -3.417969 L 5.660156 -5.699219 L 7.617188 -5.699219 C 8.496094 -5.699219 8.9375 -5.277344 8.9375 -4.558594 C 8.9375 -3.820312 8.496094 -3.417969 7.617188 -3.417969 Z M 5.660156 -3.417969 "/></g></g></g><g fill="#000000" fill-opacity="1"><g transform="translate(174.042625, 269.088556)"><g><path d="M 1.039062 0 L 5.660156 0 L 5.660156 -4.117188 L 6.757812 -4.117188 L 9.617188 0 L 14.695312 0 L 11.117188 -4.878906 C 12.515625 -5.578125 13.515625 -6.859375 13.515625 -9.058594 C 13.515625 -12.875 10.539062 -13.996094 7.558594 -13.996094 L 1.039062 -13.996094 Z M 5.660156 -7.597656 L 5.660156 -10.238281 L 7.4375 -10.238281 C 8.339844 -10.238281 8.859375 -9.699219 8.859375 -8.917969 C 8.859375 -8.136719 8.339844 -7.597656 7.4375 -7.597656 Z M 5.660156 -7.597656 "/></g></g></g><g fill="#000000" fill-opacity="1"><g transform="translate(193.196892, 269.088556)"><g><path d="M 10.136719 -13.996094 L 5.160156 -13.996094 L -0.0585938 0 L 4.640625 0 L 5.238281 -1.859375 L 10.058594 -1.859375 L 10.675781 0 L 15.375 0 Z M 6.277344 -5.199219 L 7.257812 -8.15625 C 7.398438 -8.679688 7.539062 -9.238281 7.65625 -9.957031 C 7.757812 -9.238281 7.898438 -8.679688 8.058594 -8.15625 L 9.019531 -5.199219 Z M 6.277344 -5.199219 "/></g></g></g><g fill="#000000" fill-opacity="1"><g transform="translate(213.110852, 269.088556)"><g><path d="M 1.039062 0 L 5.660156 0 L 5.660156 -4.117188 L 6.757812 -4.117188 L 9.617188 0 L 14.695312 0 L 11.117188 -4.878906 C 12.515625 -5.578125 13.515625 -6.859375 13.515625 -9.058594 C 13.515625 -12.875 10.539062 -13.996094 7.558594 -13.996094 L 1.039062 -13.996094 Z M 5.660156 -7.597656 L 5.660156 -10.238281 L 7.4375 -10.238281 C 8.339844 -10.238281 8.859375 -9.699219 8.859375 -8.917969 C 8.859375 -8.136719 8.339844 -7.597656 7.4375 -7.597656 Z M 5.660156 -7.597656 "/></g></g></g><g fill="#000000" fill-opacity="1"><g transform="translate(232.265125, 269.088556)"><g><path d="M 5.238281 0 L 9.835938 0 L 9.835938 -4.777344 L 15.175781 -13.996094 L 9.9375 -13.996094 L 7.539062 -8.699219 L 5.140625 -13.996094 L -0.078125 -13.996094 L 5.238281 -4.777344 Z M 5.238281 0 "/></g></g></g><g fill="#000000" fill-opacity="1"><g transform="translate(88.598684, 286.962783)"><g><path d="M 2.3125 -7.796875 L 2.3125 -4.421875 L 6.75 -4.421875 L 6.75 -3.640625 L 2.3125 -3.640625 L 2.3125 0 L 1.390625 0 L 1.390625 -8.59375 L 7.28125 -8.59375 L 7.28125 -7.796875 Z M 2.3125 -7.796875 "/></g></g></g><g fill="#000000" fill-opacity="1"><g transform="translate(104.946548, 286.962783)"><g><path d="M 4.859375 0.078125 C 3.742188 0.078125 2.875 -0.238281 2.25 -0.875 C 1.632812 -1.519531 1.328125 -2.453125 1.328125 -3.671875 L 1.328125 -8.59375 L 2.234375 -8.59375 L 2.234375 -3.703125 C 2.234375 -2.703125 2.457031 -1.957031 2.90625 -1.46875 C 3.351562 -0.976562 4.003906 -0.734375 4.859375 -0.734375 C 5.710938 -0.734375 6.363281 -0.976562 6.8125 -1.46875 C 7.269531 -1.957031 7.5 -2.703125 7.5 -3.703125 L 7.5 -8.59375 L 8.375 -8.59375 L 8.375 -3.671875 C 8.375 -2.453125 8.066406 -1.519531 7.453125 -0.875 C 6.835938 -0.238281 5.972656 0.078125 4.859375 0.078125 Z M 4.859375 0.078125 "/></g></g></g><g fill="#000000" fill-opacity="1"><g transform="translate(123.243421, 286.962783)"><g><path d="M 1.390625 -8.59375 L 2.3125 -8.59375 L 2.3125 -0.78125 L 7.109375 -0.78125 L 7.109375 0 L 1.390625 0 Z M 1.390625 -8.59375 "/></g></g></g><g fill="#000000" fill-opacity="1"><g transform="translate(139.051939, 286.962783)"><g><path d="M 1.390625 -8.59375 L 2.3125 -8.59375 L 2.3125 -0.78125 L 7.109375 -0.78125 L 7.109375 0 L 1.390625 0 Z M 1.390625 -8.59375 "/></g></g></g><g fill="#000000" fill-opacity="1"><g transform="translate(154.860452, 286.962783)"><g/></g></g><g fill="#000000" fill-opacity="1"><g transform="translate(166.660649, 286.962783)"><g><path d="M 5.15625 0.078125 C 4.300781 0.078125 3.523438 -0.109375 2.828125 -0.484375 C 2.140625 -0.867188 1.601562 -1.390625 1.21875 -2.046875 C 0.832031 -2.710938 0.640625 -3.460938 0.640625 -4.296875 C 0.640625 -5.117188 0.832031 -5.859375 1.21875 -6.515625 C 1.601562 -7.179688 2.140625 -7.703125 2.828125 -8.078125 C 3.523438 -8.460938 4.300781 -8.65625 5.15625 -8.65625 C 6 -8.65625 6.757812 -8.46875 7.4375 -8.09375 C 8.125 -7.71875 8.664062 -7.195312 9.0625 -6.53125 C 9.457031 -5.863281 9.65625 -5.117188 9.65625 -4.296875 C 9.65625 -3.460938 9.457031 -2.710938 9.0625 -2.046875 C 8.664062 -1.390625 8.125 -0.867188 7.4375 -0.484375 C 6.757812 -0.109375 6 0.078125 5.15625 0.078125 Z M 5.15625 -0.734375 C 5.832031 -0.734375 6.441406 -0.882812 6.984375 -1.1875 C 7.535156 -1.5 7.96875 -1.925781 8.28125 -2.46875 C 8.59375 -3.007812 8.75 -3.617188 8.75 -4.296875 C 8.75 -4.960938 8.59375 -5.566406 8.28125 -6.109375 C 7.96875 -6.660156 7.535156 -7.085938 6.984375 -7.390625 C 6.441406 -7.691406 5.832031 -7.84375 5.15625 -7.84375 C 4.476562 -7.84375 3.863281 -7.691406 3.3125 -7.390625 C 2.757812 -7.085938 2.320312 -6.660156 2 -6.109375 C 1.6875 -5.566406 1.53125 -4.960938 1.53125 -4.296875 C 1.53125 -3.617188 1.6875 -3.007812 2 -2.46875 C 2.320312 -1.925781 2.757812 -1.5 3.3125 -1.1875 C 3.863281 -0.882812 4.476562 -0.734375 5.15625 -0.734375 Z M 5.15625 -0.734375 "/></g></g></g><g fill="#000000" fill-opacity="1"><g transform="translate(185.533637, 286.962783)"><g><path d="M 2.3125 -7.796875 L 2.3125 -4.421875 L 6.75 -4.421875 L 6.75 -3.640625 L 2.3125 -3.640625 L 2.3125 0 L 1.390625 0 L 1.390625 -8.59375 L 7.28125 -8.59375 L 7.28125 -7.796875 Z M 2.3125 -7.796875 "/></g></g></g><g fill="#000000" fill-opacity="1"><g transform="translate(201.881498, 286.962783)"><g/></g></g><g fill="#000000" fill-opacity="1"><g transform="translate(213.681695, 286.962783)"><g><path d="M 1.390625 -8.59375 L 2.3125 -8.59375 L 2.3125 0 L 1.390625 0 Z M 1.390625 -8.59375 "/></g></g></g><g fill="#000000" fill-opacity="1"><g transform="translate(225.972203, 286.962783)"><g><path d="M 1.390625 -8.59375 L 4.890625 -8.59375 C 5.796875 -8.59375 6.597656 -8.410156 7.296875 -8.046875 C 7.992188 -7.679688 8.535156 -7.171875 8.921875 -6.515625 C 9.304688 -5.867188 9.5 -5.128906 9.5 -4.296875 C 9.5 -3.460938 9.304688 -2.71875 8.921875 -2.0625 C 8.535156 -1.414062 7.992188 -0.910156 7.296875 -0.546875 C 6.597656 -0.179688 5.796875 0 4.890625 0 L 1.390625 0 Z M 4.84375 -0.78125 C 5.59375 -0.78125 6.25 -0.929688 6.8125 -1.234375 C 7.382812 -1.535156 7.820312 -1.945312 8.125 -2.46875 C 8.4375 -3 8.59375 -3.609375 8.59375 -4.296875 C 8.59375 -4.984375 8.4375 -5.585938 8.125 -6.109375 C 7.820312 -6.640625 7.382812 -7.050781 6.8125 -7.34375 C 6.25 -7.644531 5.59375 -7.796875 4.84375 -7.796875 L 2.3125 -7.796875 L 2.3125 -0.78125 Z M 4.84375 -0.78125 "/></g></g></g><g fill="#000000" fill-opacity="1"><g transform="translate(244.685832, 286.962783)"><g><path d="M 7.46875 -0.78125 L 7.46875 0 L 1.390625 0 L 1.390625 -8.59375 L 7.28125 -8.59375 L 7.28125 -7.796875 L 2.3125 -7.796875 L 2.3125 -4.75 L 6.75 -4.75 L 6.75 -3.96875 L 2.3125 -3.96875 L 2.3125 -0.78125 Z M 7.46875 -0.78125 "/></g></g></g><g fill="#000000" fill-opacity="1"><g transform="translate(261.474978, 286.962783)"><g><path d="M 6.78125 -2.296875 L 2 -2.296875 L 0.96875 0 L 0.03125 0 L 3.953125 -8.59375 L 4.84375 -8.59375 L 8.765625 0 L 7.8125 0 Z M 6.453125 -3.03125 L 4.390625 -7.640625 L 2.328125 -3.03125 Z M 6.453125 -3.03125 "/></g></g></g><g fill="#000000" fill-opacity="1"><g transform="translate(278.852499, 286.962783)"><g><path d="M 3.765625 0.078125 C 3.128906 0.078125 2.519531 -0.0234375 1.9375 -0.234375 C 1.351562 -0.441406 0.898438 -0.710938 0.578125 -1.046875 L 0.9375 -1.734375 C 1.238281 -1.429688 1.644531 -1.179688 2.15625 -0.984375 C 2.675781 -0.796875 3.210938 -0.703125 3.765625 -0.703125 C 4.535156 -0.703125 5.113281 -0.84375 5.5 -1.125 C 5.882812 -1.40625 6.078125 -1.769531 6.078125 -2.21875 C 6.078125 -2.5625 5.972656 -2.832031 5.765625 -3.03125 C 5.554688 -3.238281 5.296875 -3.398438 4.984375 -3.515625 C 4.679688 -3.628906 4.265625 -3.75 3.734375 -3.875 C 3.085938 -4.039062 2.570312 -4.195312 2.1875 -4.34375 C 1.800781 -4.5 1.46875 -4.726562 1.1875 -5.03125 C 0.914062 -5.34375 0.78125 -5.765625 0.78125 -6.296875 C 0.78125 -6.734375 0.894531 -7.128906 1.125 -7.484375 C 1.351562 -7.835938 1.703125 -8.117188 2.171875 -8.328125 C 2.648438 -8.546875 3.242188 -8.65625 3.953125 -8.65625 C 4.441406 -8.65625 4.921875 -8.585938 5.390625 -8.453125 C 5.859375 -8.316406 6.265625 -8.132812 6.609375 -7.90625 L 6.296875 -7.171875 C 5.941406 -7.410156 5.554688 -7.585938 5.140625 -7.703125 C 4.734375 -7.828125 4.335938 -7.890625 3.953125 -7.890625 C 3.203125 -7.890625 2.632812 -7.742188 2.25 -7.453125 C 1.875 -7.160156 1.6875 -6.785156 1.6875 -6.328125 C 1.6875 -5.984375 1.789062 -5.707031 2 -5.5 C 2.207031 -5.289062 2.46875 -5.128906 2.78125 -5.015625 C 3.09375 -4.910156 3.515625 -4.789062 4.046875 -4.65625 C 4.671875 -4.5 5.175781 -4.34375 5.5625 -4.1875 C 5.957031 -4.039062 6.289062 -3.8125 6.5625 -3.5 C 6.832031 -3.195312 6.96875 -2.785156 6.96875 -2.265625 C 6.96875 -1.835938 6.847656 -1.441406 6.609375 -1.078125 C 6.378906 -0.722656 6.023438 -0.441406 5.546875 -0.234375 C 5.066406 -0.0234375 4.472656 0.078125 3.765625 0.078125 Z M 3.765625 0.078125 "/></g></g></g></svg>